<mxfile host="app.diagrams.net" agent="Mozilla/5.0 (Windows NT 10.0; Win64; x64) AppleWebKit/537.36 (KHTML, like Gecko) Chrome/138.0.0.0 Safari/537.36" version="28.0.4">
  <diagram name="Página-1" id="OkPVW49jWbX1fsdVBJ2C">
    <mxGraphModel dx="503" dy="460" grid="1" gridSize="10" guides="1" tooltips="1" connect="1" arrows="1" fold="1" page="1" pageScale="1" pageWidth="827" pageHeight="1169" math="0" shadow="0">
      <root>
        <mxCell id="0" />
        <mxCell id="1" parent="0" />
        <mxCell id="D0S8orr9mk-vznQ7l5P2-8" style="rounded=0;orthogonalLoop=1;jettySize=auto;html=1;entryX=0;entryY=0.5;entryDx=0;entryDy=0;" edge="1" parent="1" source="D0S8orr9mk-vznQ7l5P2-2" target="D0S8orr9mk-vznQ7l5P2-3">
          <mxGeometry relative="1" as="geometry" />
        </mxCell>
        <mxCell id="D0S8orr9mk-vznQ7l5P2-9" value="1. Seleccionar Solicitud" style="edgeLabel;html=1;align=center;verticalAlign=middle;resizable=0;points=[];" vertex="1" connectable="0" parent="D0S8orr9mk-vznQ7l5P2-8">
          <mxGeometry x="-0.0911" y="-1" relative="1" as="geometry">
            <mxPoint as="offset" />
          </mxGeometry>
        </mxCell>
        <mxCell id="D0S8orr9mk-vznQ7l5P2-2" value=":Administrador" style="html=1;whiteSpace=wrap;" vertex="1" parent="1">
          <mxGeometry x="150" y="70" width="110" height="50" as="geometry" />
        </mxCell>
        <mxCell id="D0S8orr9mk-vznQ7l5P2-10" style="rounded=0;orthogonalLoop=1;jettySize=auto;html=1;entryX=1;entryY=0.25;entryDx=0;entryDy=0;" edge="1" parent="1" source="D0S8orr9mk-vznQ7l5P2-3" target="D0S8orr9mk-vznQ7l5P2-4">
          <mxGeometry relative="1" as="geometry" />
        </mxCell>
        <mxCell id="D0S8orr9mk-vznQ7l5P2-11" value="2. Enviar Decisión" style="edgeLabel;html=1;align=center;verticalAlign=middle;resizable=0;points=[];" vertex="1" connectable="0" parent="D0S8orr9mk-vznQ7l5P2-10">
          <mxGeometry x="-0.0637" y="1" relative="1" as="geometry">
            <mxPoint x="-1" as="offset" />
          </mxGeometry>
        </mxCell>
        <mxCell id="D0S8orr9mk-vznQ7l5P2-3" value=":UI_Solicitudes" style="html=1;whiteSpace=wrap;" vertex="1" parent="1">
          <mxGeometry x="470" y="130" width="110" height="50" as="geometry" />
        </mxCell>
        <mxCell id="D0S8orr9mk-vznQ7l5P2-12" style="rounded=0;orthogonalLoop=1;jettySize=auto;html=1;entryX=0;entryY=0.5;entryDx=0;entryDy=0;" edge="1" parent="1" source="D0S8orr9mk-vznQ7l5P2-4" target="D0S8orr9mk-vznQ7l5P2-5">
          <mxGeometry relative="1" as="geometry" />
        </mxCell>
        <mxCell id="D0S8orr9mk-vznQ7l5P2-13" value="3. Actualizar Estado Solicitud&amp;nbsp;" style="edgeLabel;html=1;align=center;verticalAlign=middle;resizable=0;points=[];" vertex="1" connectable="0" parent="D0S8orr9mk-vznQ7l5P2-12">
          <mxGeometry x="-0.033" y="2" relative="1" as="geometry">
            <mxPoint as="offset" />
          </mxGeometry>
        </mxCell>
        <mxCell id="D0S8orr9mk-vznQ7l5P2-14" style="rounded=0;orthogonalLoop=1;jettySize=auto;html=1;entryX=0;entryY=0.5;entryDx=0;entryDy=0;" edge="1" parent="1" source="D0S8orr9mk-vznQ7l5P2-4" target="D0S8orr9mk-vznQ7l5P2-6">
          <mxGeometry relative="1" as="geometry" />
        </mxCell>
        <mxCell id="D0S8orr9mk-vznQ7l5P2-15" value="4A.(Decisión = Aceptar) Actualizar Estado Evento" style="edgeLabel;html=1;align=center;verticalAlign=middle;resizable=0;points=[];" vertex="1" connectable="0" parent="D0S8orr9mk-vznQ7l5P2-14">
          <mxGeometry x="-0.0039" y="1" relative="1" as="geometry">
            <mxPoint as="offset" />
          </mxGeometry>
        </mxCell>
        <mxCell id="D0S8orr9mk-vznQ7l5P2-16" style="edgeStyle=orthogonalEdgeStyle;rounded=0;orthogonalLoop=1;jettySize=auto;html=1;entryX=0.5;entryY=0;entryDx=0;entryDy=0;" edge="1" parent="1" source="D0S8orr9mk-vznQ7l5P2-4" target="D0S8orr9mk-vznQ7l5P2-7">
          <mxGeometry relative="1" as="geometry" />
        </mxCell>
        <mxCell id="D0S8orr9mk-vznQ7l5P2-17" value="5. Notificar Cliente" style="edgeLabel;html=1;align=center;verticalAlign=middle;resizable=0;points=[];" vertex="1" connectable="0" parent="D0S8orr9mk-vznQ7l5P2-16">
          <mxGeometry x="-0.2224" y="-2" relative="1" as="geometry">
            <mxPoint as="offset" />
          </mxGeometry>
        </mxCell>
        <mxCell id="D0S8orr9mk-vznQ7l5P2-18" style="edgeStyle=orthogonalEdgeStyle;rounded=0;orthogonalLoop=1;jettySize=auto;html=1;entryX=0.5;entryY=1;entryDx=0;entryDy=0;" edge="1" parent="1" source="D0S8orr9mk-vznQ7l5P2-4" target="D0S8orr9mk-vznQ7l5P2-5">
          <mxGeometry relative="1" as="geometry">
            <Array as="points">
              <mxPoint x="290" y="265" />
              <mxPoint x="290" y="310" />
              <mxPoint x="555" y="310" />
            </Array>
          </mxGeometry>
        </mxCell>
        <mxCell id="D0S8orr9mk-vznQ7l5P2-19" value="4B. (Decisión = Rechazar) Registrar Motivo Rechazo" style="edgeLabel;html=1;align=center;verticalAlign=middle;resizable=0;points=[];" vertex="1" connectable="0" parent="D0S8orr9mk-vznQ7l5P2-18">
          <mxGeometry x="0.1033" y="-2" relative="1" as="geometry">
            <mxPoint x="3" y="-2" as="offset" />
          </mxGeometry>
        </mxCell>
        <mxCell id="D0S8orr9mk-vznQ7l5P2-4" value=":SistemaSolicitudes&lt;span style=&quot;color: rgba(0, 0, 0, 0); font-family: monospace; font-size: 0px; text-align: start; text-wrap-mode: nowrap;&quot;&gt;%3CmxGraphModel%3E%3Croot%3E%3CmxCell%20id%3D%220%22%2F%3E%3CmxCell%20id%3D%221%22%20parent%3D%220%22%2F%3E%3CmxCell%20id%3D%222%22%20value%3D%22%3AUI_Solicitudes%22%20style%3D%22html%3D1%3BwhiteSpace%3Dwrap%3B%22%20vertex%3D%221%22%20parent%3D%221%22%3E%3CmxGeometry%20x%3D%22470%22%20y%3D%22130%22%20width%3D%22110%22%20height%3D%2250%22%20as%3D%22geometry%22%2F%3E%3C%2FmxCell%3E%3C%2Froot%3E%3C%2FmxGraphModel%3E&lt;/span&gt;" style="html=1;whiteSpace=wrap;" vertex="1" parent="1">
          <mxGeometry x="150" y="240" width="110" height="50" as="geometry" />
        </mxCell>
        <mxCell id="D0S8orr9mk-vznQ7l5P2-5" value=":BD_Solicitudes" style="html=1;whiteSpace=wrap;" vertex="1" parent="1">
          <mxGeometry x="500" y="220" width="110" height="50" as="geometry" />
        </mxCell>
        <mxCell id="D0S8orr9mk-vznQ7l5P2-6" value=":BD Eventos" style="html=1;whiteSpace=wrap;" vertex="1" parent="1">
          <mxGeometry x="470" y="420" width="110" height="50" as="geometry" />
        </mxCell>
        <mxCell id="D0S8orr9mk-vznQ7l5P2-7" value=":Notificación" style="html=1;whiteSpace=wrap;" vertex="1" parent="1">
          <mxGeometry x="150" y="420" width="110" height="50" as="geometry" />
        </mxCell>
      </root>
    </mxGraphModel>
  </diagram>
</mxfile>
